<svg width="19" height="21" viewBox="0 0 19 21" fill="none" xmlns="http://www.w3.org/2000/svg">
  <path d="M10 1V5C10 5.26522 10.1054 5.51957 10.2929 5.70711C10.4804 5.89464 10.7348 6 11 6H15" stroke="white" stroke-linecap="round"/>
  <path d="M8 19H3C2.46957 19 1.96086 18.7893 1.58579 18.4142C1.21071 18.0391 1 17.5304 1 17V3C1 2.46957 1.21071 1.96086 1.58579 1.58579C1.96086 1.21071 2.46957 1 3 1H10L15 6V9.5" stroke="white" stroke-linecap="square"/>
  <line x1="5" y1="14" x2="5" y2="9" stroke="white" stroke-linecap="round"/>
  <line x1="9" y1="14" x2="9" y2="7" stroke="white" stroke-linecap="round"/>
  <line x1="13" y1="14" x2="13" y2="11" stroke="white" stroke-linecap="round"/>
  <polyline points="5,12 9,10 13,12" stroke="white" fill="none" stroke-linecap="round"/>
  <path d="M15 20.5C15.2053 19.6513 15.6406 18.8755 16.2581 18.2581C16.8755 17.6406 17.6513 17.2053 18.5 17C17.6513 16.7947 16.8755 16.3594 16.2581 15.7419C15.6406 15.1245 15.2053 14.3487 15 13.5C14.7947 14.3487 14.3594 15.1245 13.7419 15.7419C13.1245 16.3594 12.3487 16.7947 11.5 17C12.3487 17.2053 13.1245 17.6406 13.7419 18.2581C14.3594 18.8755 14.7947 19.6513 15 20.5Z" stroke="#FE5000" stroke-linecap="round"/>
</svg>
