<svg width="20" height="18" viewBox="0 0 20 18" fill="none" xmlns="http://www.w3.org/2000/svg">
<path d="M9.94115 12.2941H1.94117C1.69156 12.2941 1.45217 12.1949 1.27566 12.0184C1.09916 11.8419 1 11.6025 1 11.3529V1.94117C1 1.69156 1.09916 1.45217 1.27566 1.27566C1.45217 1.09916 1.69156 1 1.94117 1H17C17.2496 1 17.489 1.09916 17.6655 1.27566C17.842 1.45217 17.9411 1.69156 17.9411 1.94117V9.47057" stroke="white" stroke-linecap="square" stroke-linejoin="round"/>
<path d="M4.76477 16.0588H8.52947" stroke="white" stroke-linecap="square" stroke-linejoin="round"/>
<path d="M6.64691 12.2939V16.0586" stroke="white" stroke-linecap="square" stroke-linejoin="round"/>
<path d="M16.9999 17L18.8823 15.1177L16.9999 13.2354" stroke="#FE5000" stroke-linecap="square" stroke-linejoin="round"/>
<path d="M14.1767 13.2354L12.2943 15.1177L14.1767 17" stroke="#FE5000" stroke-linecap="square" stroke-linejoin="round"/>
</svg>
