<svg width="20" height="20" viewBox="0 0 20 20" fill="none" xmlns="http://www.w3.org/2000/svg">
<path d="M8.89286 17.7143H3.78571C3.0469 17.7143 2.33834 17.4208 1.81592 16.8984C1.29349 16.3759 1 15.6674 1 14.9286V3.78571C1 3.0469 1.29349 2.33834 1.81592 1.81592C2.33834 1.29349 3.0469 1 3.78571 1H14.9286C15.6674 1 16.3759 1.29349 16.8984 1.81592C17.4208 2.33834 17.7143 3.0469 17.7143 3.78571V8.89286" stroke="white" stroke-linecap="round" stroke-linejoin="round"/>
<path d="M11.9286 14.8213C11.9286 15.5886 12.2334 16.3244 12.7759 16.8669C13.3184 17.4094 14.0542 17.7142 14.8214 17.7142C15.5887 17.7142 16.3245 17.4094 16.867 16.8669C17.4095 16.3244 17.7143 15.5886 17.7143 14.8213C17.7143 14.0541 17.4095 13.3183 16.867 12.7758C16.3245 12.2332 15.5887 11.9285 14.8214 11.9285C14.0542 11.9285 13.3184 12.2332 12.7759 12.7758C12.2334 13.3183 11.9286 14.0541 11.9286 14.8213Z" stroke="#FE5000" stroke-linecap="round" stroke-linejoin="round"/>
<path d="M17.0714 17.0715L19 19.0001" stroke="#FE5000" stroke-linecap="round" stroke-linejoin="round"/>
<path d="M1 12.5713L5.5 8.03598C6.3352 7.22596 7.3648 7.22596 8.2 8.03598L10 9.85012" stroke="white" stroke-linecap="round" stroke-linejoin="round"/>
</svg>
