<svg width="26" height="10" viewBox="0 0 26 10" fill="none" xmlns="http://www.w3.org/2000/svg">
<g clip-path="url(#clip0_130_346)">
<path d="M20.9247 2.30811L18.9797 6.63038H22.8332L20.9247 2.30811ZM24.3677 10L23.4547 7.94774H18.3909L17.4682 10H15.8417L20.309 0H21.5289L25.9981 10H24.36H24.3658H24.3677Z" fill="#FE5000"/>
<path d="M5.08491 2.30811L3.13995 6.63038H6.99343L5.08491 2.30811ZM8.526 10L7.61298 7.94774H2.55109L1.62848 10H0L4.4692 0H5.68912L10.1583 10H8.52025H8.526Z" fill="#FE5000"/>
<path d="M16.6626 0H18.2892L13.82 10H12.1934L16.6626 0Z" fill="#FE5000"/>
<path d="M13.8066 10H12.18L7.70889 0H9.33545L13.8046 10H13.8066Z" fill="#FE5000"/>
</g>
<defs>
<clipPath id="clip0_130_346">
<rect width="26" height="10" fill="white"/>
</clipPath>
</defs>
</svg>
