<svg width="93" height="26" viewBox="0 0 93 26" fill="none" xmlns="http://www.w3.org/2000/svg">
<g clip-path="url(#clip0_127_252)">
<mask id="mask0_127_252" style="mask-type:luminance" maskUnits="userSpaceOnUse" x="0" y="0" width="93" height="26">
<path d="M93 0H0V26H93V0Z" fill="white"/>
</mask>
<g mask="url(#mask0_127_252)">
<path d="M82.9166 5.65527V7.9174H90.7577L83.1538 25.9999H85.3961L93 7.9174V5.65527H82.9166Z" fill="#E44200"/>
<path d="M13.4612 13.0434L13.4469 23.7378H5.60583V25.9999H15.6892V5.65527H13.4469L13.4612 13.0434Z" fill="#E44200"/>
<path d="M10.0905 15.8276H5.60583V20.3519H10.0905V15.8276Z" fill="#E44200"/>
<path d="M7.84104 0V10.1723L0 10.1578V20.3447H2.24235V12.4345H10.0834V2.26213H15.6893V0H7.84822H7.84104Z" fill="#E44200"/>
<path d="M78.4319 20.3446L71.7121 9.80976V20.3446H69.4697V5.65527H71.7121L78.4319 16.1901L78.4176 5.65527H80.6743V20.3519H78.4319V20.3446Z" fill="white"/>
<path d="M60.7951 9.04127L58.1143 15.3926H63.4255L60.7951 9.04127ZM65.5385 20.3447L64.2808 17.3285H57.3022L56.0301 20.3447H53.7877L59.947 5.64807H61.6288L67.788 20.3447H65.5313H65.5385Z" fill="white"/>
<path d="M50.9847 20.3447H48.7424L50.9416 15.1026L46.5 5.64807H48.7424L52.0628 12.4272L54.9016 5.64807H57.144L50.9847 20.3447Z" fill="white"/>
<path d="M35.2955 20.3446V5.65527H44.804V7.69989H37.5379V11.9921H43.6972V14.015H37.5379V18.3073H44.804V20.3519H35.2955V20.3446Z" fill="white"/>
<path d="M30.0059 8.7077C29.3806 8.01166 28.5397 7.69989 27.476 7.69989H24.6659V18.3073H27.476C28.5397 18.3073 29.3806 17.9882 30.0059 17.2994C30.7821 16.4366 30.7964 14.9721 30.7964 12.9057C30.7964 10.8393 30.7749 9.585 30.0059 8.7222M31.5511 18.938C30.6096 19.8878 29.2512 20.3519 27.706 20.3519H22.4092V5.65527H27.706C29.2512 5.65527 30.6096 6.1193 31.5511 7.0691C33.161 8.6932 33.0532 10.7306 33.0532 12.8984C33.0532 15.0663 33.161 17.3139 31.5511 18.938Z" fill="white"/>
</g>
</g>
<defs>
<clipPath id="clip0_127_252">
<rect width="93" height="26" fill="white"/>
</clipPath>
</defs>
</svg>
