<svg width="21" height="19" viewBox="0 0 21 19" fill="none" xmlns="http://www.w3.org/2000/svg">
<path d="M2.19808 1.53397L18.5001 9.49997L2.19808 17.466C2.10503 17.5017 2.00345 17.509 1.90623 17.487C1.80902 17.4649 1.72056 17.4144 1.65208 17.342C1.5816 17.2676 1.53308 17.1752 1.51189 17.0749C1.49071 16.9747 1.4977 16.8705 1.53208 16.774L4.00008 9.49997L1.53208 2.22597C1.4977 2.12944 1.49071 2.02528 1.51189 1.92503C1.53308 1.82478 1.5816 1.73234 1.65208 1.65797C1.72056 1.58552 1.80902 1.53506 1.90623 1.51298C2.00345 1.4909 2.10503 1.49821 2.19808 1.53397Z" stroke="#58D8FF" stroke-width="1.5" stroke-linecap="round"/>
<path d="M4.00009 9.5H18.5001" stroke="#58D8FF" stroke-width="1.5" stroke-linecap="round" stroke-linejoin="round"/>
</svg>
